<svg width="30" height="30" viewBox="0 0 30 30" fill="none" xmlns="http://www.w3.org/2000/svg">
<mask id="mask0_539_132" style="mask-type:luminance" maskUnits="userSpaceOnUse" x="0" y="0" width="30" height="30">
<path d="M0 0H30V30H0V0Z" fill="white"/>
</mask>
<g mask="url(#mask0_539_132)">
<mask id="mask1_539_132" style="mask-type:luminance" maskUnits="userSpaceOnUse" x="-6" y="-5" width="42" height="40">
<path d="M21.3159 -4.89584L35.0987 21.7068L8.74702 34.8579L-5.03467 8.25521L21.3159 -4.89584Z" fill="white"/>
</mask>
<g mask="url(#mask1_539_132)">
<mask id="mask2_539_132" style="mask-type:luminance" maskUnits="userSpaceOnUse" x="-6" y="-5" width="42" height="40">
<path d="M21.3159 -4.89584L35.0987 21.7068L8.74702 34.8579L-5.03467 8.25521L21.3159 -4.89584Z" fill="white"/>
</mask>
<g mask="url(#mask2_539_132)">
<mask id="mask3_539_132" style="mask-type:luminance" maskUnits="userSpaceOnUse" x="-6" y="-5" width="42" height="40">
<path d="M21.3159 -4.89584L35.0987 21.7068L8.74702 34.8579L-5.03467 8.25521L21.3159 -4.89584Z" fill="white"/>
</mask>
<g mask="url(#mask3_539_132)">
<mask id="mask4_539_132" style="mask-type:luminance" maskUnits="userSpaceOnUse" x="0" y="0" width="30" height="30">
<path d="M26.1284 5.44813C20.5996 -0.759553 11.1229 -1.52778 5.00258 3.73372C3.68146 4.86979 2.60908 6.22179 1.78987 7.73871C0.386939 10.3364 -0.165832 13.2878 0.191258 16.2728C0.557193 19.3251 1.85399 22.1777 3.94236 24.5226C9.46676 30.7237 18.9335 31.492 25.0472 26.2359C31.1674 20.9733 31.6583 11.6547 26.1284 5.44813ZM3.41391 21.7372C3.64829 21.9998 3.85171 22.2049 4.00649 22.3513C5.03132 23.3247 6.44752 23.4006 7.94774 23.4809C9.68013 23.5731 11.6436 23.6784 13.3328 25.2224C14.7634 26.531 16.1686 27.6758 17.7561 28.1966C16.1453 27.7246 14.7291 26.6515 13.3362 25.4601C11.6557 24.0224 9.7343 23.8574 8.04061 23.7109C6.51938 23.5786 5.08328 23.4549 4.04518 22.4523C3.11984 21.5571 2.24867 20.396 1.58424 19.0365C2.18455 20.2268 2.87662 21.1339 3.41391 21.7372ZM2.75833 20.8051C2.96728 21.0818 3.1707 21.326 3.35643 21.5343C3.61623 21.8262 3.84286 22.0508 4.0098 22.2059C5.01032 23.138 6.39998 23.1662 7.87257 23.1955C9.64917 23.2313 11.6635 23.2715 13.3715 24.9382C14.7734 26.3064 16.0735 27.4924 17.6246 28.0849C16.1055 27.5467 14.7524 26.4388 13.3737 25.178C11.669 23.6187 9.6934 23.5135 7.95106 23.4212C6.463 23.3409 5.05786 23.2671 4.0485 22.3079C3.87714 22.1452 3.35643 21.6276 2.75833 20.8051ZM13.2975 25.7411C11.648 24.426 9.78626 24.2036 8.14453 24.0082C6.58572 23.8227 5.11424 23.6469 4.04297 22.5955C3.20939 21.7773 2.42335 20.74 1.78766 19.541C2.35702 20.587 2.98165 21.3911 3.46698 21.9358C3.67593 22.1712 3.86055 22.3579 4.00206 22.4957C5.05564 23.5145 6.5028 23.6393 8.03508 23.7717C9.71993 23.9171 11.6292 24.082 13.2941 25.5056C14.7258 26.7307 16.1818 27.8309 17.8446 28.2888C16.1564 27.8809 14.6882 26.85 13.2964 25.7411H13.2975ZM17.8998 28.3691C16.1442 28.0219 14.6307 27.041 13.2577 26.0221C11.648 24.8275 9.92777 24.5671 8.26503 24.3153C6.662 24.0734 5.14851 23.8433 4.04076 22.7398C3.20828 21.9108 2.42445 20.8659 1.79098 19.6604C2.37802 20.7498 3.02366 21.5809 3.51562 22.1322C3.70246 22.3427 3.86719 22.513 3.99764 22.6411C5.08439 23.7077 6.56692 23.8845 8.13679 24.0712C9.85038 24.2752 11.6215 24.4868 13.2566 25.791C14.6739 26.9217 16.173 27.9709 17.8998 28.3702V28.3691ZM3.53331 22.2982C3.68256 22.4664 3.83623 22.6291 3.99322 22.7854C5.11756 23.9041 6.64099 24.1352 8.25508 24.3793C9.91008 24.6311 11.6215 24.8893 13.2179 26.0742C14.5014 27.0269 16.0293 28.0273 17.765 28.4115C16.1144 28.1044 14.623 27.27 13.219 26.3043C11.6568 25.229 10.0052 24.9273 8.40765 24.6343C6.75265 24.3316 5.18942 24.0462 4.03744 22.883C3.12537 21.964 2.26857 20.7878 1.60746 19.4238C2.12817 20.4753 2.78265 21.4572 3.53221 22.2982H3.53331ZM3.57422 22.4881C3.70909 22.6389 3.84729 22.7875 3.9888 22.9297C5.15625 24.1081 6.72944 24.3956 8.39549 24.7005C9.98636 24.9913 11.6292 25.2919 13.1803 26.3585C14.529 27.2873 16.3421 28.3789 18.4018 28.5851C18.4946 28.5948 18.5886 28.6003 18.6826 28.6057C16.6528 28.5362 14.8574 27.6508 13.1803 26.5853C11.6767 25.6293 10.1024 25.293 8.57901 24.9685C6.861 24.6018 5.23806 24.2556 4.03523 23.0263C3.14527 22.117 2.30727 20.9625 1.65057 19.6278C2.1746 20.6727 2.82687 21.6493 3.57422 22.487V22.4881ZM3.74226 23.406C3.81633 23.4896 3.89151 23.572 3.96779 23.6534C5.52329 25.3125 7.58402 25.9559 9.76526 26.6363C10.8255 26.9661 11.9211 27.3079 12.9912 27.7799C15.1504 28.7316 17.1978 29.0951 19.1602 28.8694C17.2022 29.1428 15.1526 28.8487 12.9835 27.9915C12.1145 27.6487 11.2279 27.3611 10.3711 27.0833C7.9787 26.3064 5.71786 25.574 4.02196 23.7467C3.63502 23.3301 3.26688 22.8754 2.92305 22.3904C3.18064 22.7431 3.45371 23.0827 3.74226 23.4071V23.406ZM2.8523 22.1539C3.11984 22.525 3.40507 22.8819 3.70688 23.2205C3.79422 23.3181 3.88266 23.4147 3.97221 23.5091C5.41163 25.0304 7.3209 25.5881 9.34294 26.1806C10.5557 26.5354 11.8105 26.9021 13.0288 27.4957C14.8574 28.3865 16.5798 28.8401 18.2403 28.8542C16.5699 28.89 14.8364 28.5091 13.0222 27.7105C11.9487 27.2374 10.8509 26.8945 9.78958 26.5636C7.61719 25.8865 5.56641 25.2474 4.02417 23.6024C3.6107 23.1597 3.21713 22.6758 2.8523 22.1549V22.1539ZM3.59633 22.6584C3.72236 22.8006 3.85281 22.9395 3.98437 23.0751C5.20268 24.3197 6.83446 24.6669 8.56353 25.0358C10.0803 25.3592 11.6491 25.6944 13.1416 26.6428C15.1603 27.9264 16.802 28.546 18.4637 28.6523C16.4715 28.584 14.7115 27.7854 13.1416 26.8663C11.711 26.0297 10.2241 25.6695 8.78575 25.3212C6.99034 24.8872 5.29555 24.477 4.03302 23.1706C3.43713 22.5553 2.86667 21.8294 2.35591 21.0167C2.72848 21.5994 3.14416 22.1506 3.59633 22.6584ZM3.63502 22.8472C3.74779 22.9731 3.86276 23.0979 3.97995 23.2194C5.25796 24.5399 6.96271 24.9533 8.76806 25.3906C10.2008 25.7368 11.6823 26.0959 13.104 26.9271C15.0641 28.074 16.7556 28.6437 18.4117 28.7142C16.3808 28.6892 14.6009 27.9514 13.1018 27.1474C11.7619 26.4301 10.3788 26.0579 9.04113 25.6988C7.15065 25.191 5.3652 24.7114 4.0297 23.3138C3.52115 22.7832 3.04356 22.1864 2.61129 21.5354C2.92637 21.9965 3.26798 22.4349 3.63502 22.8472ZM3.67151 23.0339C3.771 23.1456 3.87271 23.2552 3.97664 23.3637C5.3254 24.7754 7.1208 25.2572 9.02123 25.7682C10.3556 26.1274 11.7342 26.4974 13.0664 27.2114C14.4572 27.9557 16.0856 28.6447 17.9319 28.7695C16.3775 28.7055 14.7656 28.2595 13.062 27.4284C11.8381 26.8316 10.5811 26.4648 9.36505 26.1079C7.35296 25.5197 5.45364 24.9642 4.02749 23.4581C3.58306 22.9883 3.16296 22.4674 2.77602 21.9065C3.05572 22.2993 3.35422 22.6769 3.67261 23.0339H3.67151ZM3.77653 23.5927C3.83844 23.661 3.90035 23.7294 3.96337 23.7977C5.67364 25.6402 7.94332 26.377 10.3468 27.156C11.2025 27.4338 12.0869 27.7214 12.9536 28.0632C14.8065 28.7956 16.5721 29.1178 18.268 29.031C16.561 29.1688 14.7833 28.9171 12.9437 28.2726C12.3721 28.0718 11.7906 27.883 11.229 27.6986C8.50825 26.8121 5.94008 25.9755 4.01975 23.8889C3.49794 23.3214 3.02919 22.7181 2.6135 22.0877C2.96838 22.6161 3.35643 23.1196 3.77653 23.5916V23.5927ZM3.8108 23.7782C3.85945 23.8335 3.9092 23.8889 3.96005 23.9431C5.89365 26.0449 8.47288 26.8848 11.2025 27.7756C11.7652 27.9579 12.3456 28.1478 12.9172 28.3474C14.7712 28.9974 16.5632 29.2502 18.2835 29.1113C16.5511 29.3023 14.7468 29.1189 12.9039 28.5536L12.6286 28.4701C9.5143 27.5152 6.29385 26.5278 4.01754 24.0332C3.97885 23.9909 3.94126 23.9486 3.90256 23.9062C3.49794 23.4527 3.12868 22.9774 2.79039 22.4859C3.10547 22.9362 3.44598 23.3691 3.8108 23.7782ZM3.83844 23.9572C3.87714 24.0007 3.91583 24.0441 3.95563 24.0875C6.24631 26.5994 9.47781 27.5901 12.6032 28.5482L12.8796 28.6317C14.7325 29.2014 16.5478 29.3848 18.2912 29.1938C16.5356 29.4368 14.7059 29.3229 12.8641 28.8357C9.85149 28.0393 6.44531 26.8631 4.01422 24.1764C3.98769 24.1482 3.96337 24.1211 3.93794 24.0918C3.66377 23.7847 3.40618 23.4668 3.16185 23.1413C3.37633 23.4201 3.60186 23.6925 3.83734 23.9572H3.83844ZM4.0098 24.464C3.73784 24.1591 3.48025 23.8444 3.23703 23.5232C3.45482 23.8043 3.68146 24.0788 3.92025 24.3457L3.94789 24.3772C6.07606 26.7437 9.0566 28.3659 12.8055 29.2003C14.5733 29.5931 16.3222 29.6647 18.0038 29.4293C13.0266 30.268 7.65478 28.5558 4.0098 24.4651V24.464ZM12.8243 29.1168C9.09309 28.2867 6.12802 26.6732 4.01201 24.3207L3.98548 24.2915C3.72015 23.9931 3.4703 23.6871 3.2315 23.3735C3.43603 23.6372 3.64939 23.8943 3.87271 24.145C3.89925 24.1743 3.92467 24.2036 3.95121 24.2318C6.39667 26.9358 9.81832 28.1174 12.842 28.916C14.9923 29.4846 17.1237 29.5486 19.1436 29.1319C17.1271 29.5953 14.99 29.5996 12.8243 29.1168ZM24.8515 26.2836C24.8283 26.3043 24.8039 26.3238 24.7796 26.3433C24.752 26.365 24.7255 26.3878 24.6989 26.4084C24.6768 26.4269 24.6536 26.4442 24.6315 26.4627C24.6083 26.48 24.5851 26.4985 24.5618 26.5169C24.5419 26.531 24.5231 26.5451 24.5043 26.5603C24.4778 26.5799 24.4513 26.5983 24.4247 26.6189C24.4203 26.6211 24.417 26.6243 24.4126 26.6276C24.3584 26.6667 24.3042 26.7057 24.2501 26.7437C24.2479 26.7448 24.2456 26.747 24.2423 26.7491C24.1605 26.8056 24.0798 26.8609 23.998 26.9151C23.9825 26.9249 23.9671 26.9347 23.9527 26.9444C23.9085 26.9727 23.8642 27.0041 23.82 27.0312C23.8079 27.0388 23.7968 27.0454 23.7846 27.053C23.6674 27.1267 23.5514 27.1962 23.4353 27.2635C23.3944 27.2862 23.3546 27.3101 23.3148 27.3318C23.2297 27.3806 23.1445 27.4262 23.0605 27.4707C22.9953 27.5054 22.9312 27.5391 22.867 27.5716C22.8582 27.5749 22.8505 27.5792 22.8416 27.5836C22.8228 27.5933 22.8051 27.602 22.7852 27.6107C18.3785 29.7428 15.7573 27.1842 13.4135 24.8969C11.6889 23.214 9.66244 23.1738 7.87367 23.138C6.41325 23.1087 5.03464 23.0805 4.05071 22.1636C3.56648 21.7133 0.290757 18.4711 0.342718 13.5048C0.353773 12.8711 0.415683 12.22 0.538399 11.556C0.542821 11.5299 0.547243 11.5039 0.552771 11.4779C0.573776 11.3672 0.598098 11.2554 0.62242 11.1447C0.645636 11.0395 0.668853 10.9342 0.695386 10.829C0.706441 10.7856 0.718602 10.7411 0.729658 10.6966C0.770563 10.5371 0.813679 10.3787 0.861217 10.2203C0.861217 10.2203 0.861217 10.2203 0.861217 10.2192C0.913177 10.0445 0.970666 9.86979 1.03147 9.69509C1.0381 9.67448 1.04474 9.65494 1.05248 9.63433C1.10223 9.49327 1.15529 9.35221 1.21057 9.21115C1.23489 9.1493 1.25921 9.08745 1.28464 9.02452C1.31007 8.96159 1.33771 8.89757 1.36534 8.83463C1.3764 8.80751 1.38746 8.78038 1.39962 8.75434C1.40404 8.7424 1.40957 8.73047 1.41509 8.71853C1.45158 8.63498 1.48806 8.55143 1.52675 8.46788C1.53118 8.45811 1.5356 8.44726 1.54002 8.4375C1.54223 8.43099 1.54555 8.42556 1.54886 8.41905C1.55992 8.39518 1.57208 8.37022 1.58424 8.34527C1.61299 8.28342 1.64394 8.22157 1.6749 8.15972C1.68153 8.14561 1.68816 8.13151 1.6948 8.11849C1.70806 8.09244 1.72133 8.0664 1.7346 8.03928C1.74455 8.01975 1.7545 7.99913 1.76555 7.9796C1.79982 7.91232 1.83299 7.84505 1.86837 7.77886C2.68094 6.27495 3.7699 4.94791 5.08107 3.82053C11.1516 -1.39866 20.5531 -0.63477 26.0399 5.52409C31.5256 11.6829 31.0602 20.9505 24.9897 26.1697C24.9444 26.2088 24.8979 26.2467 24.8526 26.2847L24.8515 26.2836Z" fill="white"/>
</mask>
<g mask="url(#mask4_539_132)">
<path d="M25.1201 -14.1482L-13.7585 5.25607L6.37234 44.1113L45.2509 24.7081L25.1201 -14.1482Z" fill="url(#paint0_linear_539_132)"/>
</g>
</g>
</g>
</g>
</g>
<path d="M6.82059 5.7802L5.83886 5.03693L5.60007 5.24309L5.97374 6.03628L5.21976 5.57187L4.97986 5.77803L5.6067 6.82838L5.82892 6.63632L5.38117 5.9256L6.11525 6.38892L6.31204 6.21857L5.93615 5.446L6.59837 5.97117L6.82059 5.7802Z" fill="#F8D26B"/>
<path d="M8.0506 3.60633L8.39221 4.20963C8.47402 4.35395 8.47734 4.4592 8.31593 4.54709C8.15673 4.63498 8.06497 4.57747 7.98316 4.43316L7.64044 3.83094L7.40607 3.95898L7.76758 4.59592C7.92457 4.87369 8.17 4.92903 8.44638 4.77712C8.72277 4.6263 8.80347 4.39301 8.64648 4.11523L8.28497 3.47829L8.0506 3.60633Z" fill="#F8D26B"/>
<path d="M11.718 3.48789L11.1387 2.41259L10.8336 2.50265L10.8402 3.37722L10.3483 2.64697L10.0443 2.73811L10.1714 3.94905L10.4533 3.86441L10.3472 3.03542L10.8181 3.75591L11.0702 3.68104L11.0547 2.82492L11.435 3.57253L11.718 3.48789Z" fill="#F8D26B"/>
<path d="M13.5778 2.263L13.9239 2.23262L13.9028 1.99499L12.9432 2.07854L12.9653 2.31617L13.3103 2.28579L13.3965 3.23848L13.6641 3.21461L13.5778 2.263Z" fill="#F8D26B"/>
<path d="M16.1723 2.80624L15.866 2.77478L16.0639 2.36787L16.1723 2.80624ZM16.5758 3.30646L16.211 2.06839L15.9843 2.04561L15.3674 3.18385L15.6538 3.21314L15.7665 2.98202L16.2275 3.02977L16.2895 3.27716L16.5758 3.30646Z" fill="#F8D26B"/>
<path d="M18.9973 2.66097L18.8536 3.11561L18.47 2.99842L18.6148 2.54378L18.3583 2.46565L17.9968 3.60606L18.2533 3.68419L18.3981 3.22629L18.7807 3.34347L18.6358 3.80137L18.9089 3.88492L19.2715 2.74452L18.9973 2.66097Z" fill="#F8D26B"/>
<path d="M20.5848 4.61086L21.1387 3.54641L20.8988 3.42705L20.346 4.49042L20.5848 4.61086Z" fill="#F8D26B"/>
<path d="M22.6922 5.95972L23.4219 5.00377L23.2063 4.84535L22.7519 5.44214L22.8713 4.59904L22.6557 4.4417L21.9272 5.39765L22.1417 5.55607L22.5971 4.95928L22.4766 5.80238L22.6922 5.95972Z" fill="#F8D26B"/>
<path d="M25.7925 8.63951L25.9926 8.50496L25.756 8.16534L25.9561 8.03187L26.2026 8.38561L26.4038 8.24997L26.0047 7.67923L25.0009 8.35414L25.1524 8.57224L25.5559 8.30097L25.7925 8.63951Z" fill="#F8D26B"/>
<path d="M26.848 10.6506L26.7253 10.3739L27.1841 10.3424L26.848 10.6506ZM26.6037 11.243L27.5213 10.3196L27.4306 10.1157L26.1172 10.1493L26.2333 10.4086L26.4931 10.3913L26.6789 10.8079L26.4887 10.9837L26.6037 11.243Z" fill="#F8D26B"/>
<path d="M27.5196 12.771L27.5207 12.772L27.1592 13.1431L27.2333 13.4687L27.5937 13.039C27.6644 13.1779 27.8236 13.2668 28.0249 13.2234C28.2504 13.1735 28.3676 12.9717 28.3245 12.7829L28.2836 12.6028L28.2681 12.5398L28.2239 12.3456L27.0365 12.6071L27.0951 12.8643L27.5196 12.771ZM28.1078 12.7851C28.1255 12.861 28.0768 12.9543 27.9685 12.9782C27.8557 13.0032 27.775 12.9381 27.7573 12.8621L27.7264 12.7254L28.0768 12.6483L28.1078 12.7851Z" fill="#F8D26B"/>
<path d="M27.8946 15.4942L27.8858 15.1914L28.3225 15.3303L27.8946 15.4942ZM27.4425 15.9532L28.6442 15.4345L28.6387 15.211L27.4071 14.7607L27.4159 15.0439L27.6636 15.1231L27.6769 15.5777L27.4336 15.67L27.4425 15.9532Z" fill="#F8D26B"/>
<path d="M27.5801 18.0022C27.5005 17.9891 27.4463 17.9132 27.4596 17.8351L27.4872 17.6701L27.7769 17.7168L27.7492 17.8817C27.736 17.9598 27.6575 18.0152 27.5801 18.0022ZM28.0953 18.0011C28.019 17.9891 27.9659 17.9164 27.9792 17.8426L27.9936 17.7515L28.2733 17.7971L28.2578 17.8871C28.2456 17.962 28.1727 18.0141 28.0953 18.0011ZM27.5292 18.2658C27.6918 18.293 27.8167 18.2029 27.8709 18.0759C27.8963 18.1703 27.9803 18.2376 28.1019 18.2571C28.2655 18.2832 28.4236 18.1768 28.4568 17.9761L28.5253 17.5703L27.3236 17.3772L27.244 17.8535C27.2064 18.0792 27.3225 18.2333 27.5292 18.2658Z" fill="#F8D26B"/>
<path d="M26.7134 19.8606L27.8665 20.2436L27.9528 19.9941L26.7997 19.611L26.7134 19.8606Z" fill="#F8D26B"/>
<path fill-rule="evenodd" clip-rule="evenodd" d="M14.5478 15.9594C14.9822 15.9789 15.1934 15.7022 15.1934 14.6529V14.1163L15.5905 15.1698L16.1581 14.9637C16.1987 15.758 16.4094 15.9768 16.7964 15.9594V16.0483H14.5478V15.9594ZM16.1508 13.8361V10.6859C16.1508 9.63667 16.3631 9.35021 16.7964 9.36974V9.28077H15.1934L12.8651 15.8009L10.5568 9.28077H9.05432V9.36974C9.48769 9.35021 9.69996 9.63667 9.69996 10.6859V14.6529C9.69996 15.7022 9.48769 15.9789 9.05432 15.9594V16.0483H10.5258V15.9594C10.0924 15.9789 9.88127 15.7022 9.88127 14.6529V10.2508L11.9376 16.0483H12.9657L15.1934 9.81462V12.1362L15.4719 12.0351L16.1508 13.8361Z" fill="#EFC75E"/>
<path fill-rule="evenodd" clip-rule="evenodd" d="M16.0562 13.585H16.7079C17.5249 13.585 18.4823 14.1395 18.7952 14.9012H18.8859L18.4624 13.407H15.9891L16.0562 13.585ZM14.9261 13.407H13.2708V13.496C13.7042 13.4765 13.9164 13.7629 13.9164 14.8122V18.7792C13.9164 19.8285 13.7042 20.1052 13.2708 20.0856V20.1746H15.5184V20.0856C15.085 20.1052 14.8738 19.8285 14.8738 18.7792V17.2959C15.2124 16.8312 15.6704 16.9876 16.113 17.1388C16.1705 17.1584 16.2278 17.178 16.2845 17.1961C17.1723 17.4934 17.777 17.2753 18.1197 16.2966L18.039 16.2564C17.6935 16.7734 17.2099 16.6003 16.7562 16.438C16.7061 16.42 16.6564 16.4023 16.6073 16.3855C15.8014 16.1186 15.2265 16.2662 14.8738 17.0181V13.585H14.9932L14.9261 13.407Z" fill="#EFC75E"/>
<defs>
<linearGradient id="paint0_linear_539_132" x1="5.1134" y1="-4.1629" x2="24.6528" y2="34.988" gradientUnits="userSpaceOnUse">
<stop stop-color="#BD6513"/>
<stop offset="0.0625" stop-color="#BD6513"/>
<stop offset="0.078125" stop-color="#BD6513"/>
<stop offset="0.0859375" stop-color="#BD6513"/>
<stop offset="0.0898438" stop-color="#BD6614"/>
<stop offset="0.09375" stop-color="#BE6714"/>
<stop offset="0.0976562" stop-color="#BF6916"/>
<stop offset="0.101562" stop-color="#C16C18"/>
<stop offset="0.105469" stop-color="#C26E1A"/>
<stop offset="0.109375" stop-color="#C4701D"/>
<stop offset="0.113281" stop-color="#C5731F"/>
<stop offset="0.117188" stop-color="#C67521"/>
<stop offset="0.121094" stop-color="#C87823"/>
<stop offset="0.125" stop-color="#C97A25"/>
<stop offset="0.128906" stop-color="#CB7D27"/>
<stop offset="0.132812" stop-color="#CC7F29"/>
<stop offset="0.136719" stop-color="#CE822B"/>
<stop offset="0.140625" stop-color="#CF842D"/>
<stop offset="0.144531" stop-color="#D0872F"/>
<stop offset="0.148438" stop-color="#D28931"/>
<stop offset="0.152344" stop-color="#D38C33"/>
<stop offset="0.15625" stop-color="#D58E35"/>
<stop offset="0.160156" stop-color="#D69137"/>
<stop offset="0.164063" stop-color="#D79339"/>
<stop offset="0.167969" stop-color="#D9963B"/>
<stop offset="0.171875" stop-color="#DA983D"/>
<stop offset="0.175781" stop-color="#DC9B3F"/>
<stop offset="0.179688" stop-color="#DD9D41"/>
<stop offset="0.183594" stop-color="#DFA043"/>
<stop offset="0.1875" stop-color="#E0A245"/>
<stop offset="0.191406" stop-color="#E1A547"/>
<stop offset="0.195312" stop-color="#E3A749"/>
<stop offset="0.199219" stop-color="#E4A94B"/>
<stop offset="0.203125" stop-color="#E6AC4D"/>
<stop offset="0.207031" stop-color="#E7AE4F"/>
<stop offset="0.210938" stop-color="#E9B151"/>
<stop offset="0.214844" stop-color="#EAB353"/>
<stop offset="0.21875" stop-color="#EBB655"/>
<stop offset="0.222656" stop-color="#EDB857"/>
<stop offset="0.226562" stop-color="#EEBB59"/>
<stop offset="0.230469" stop-color="#F0BD5B"/>
<stop offset="0.234375" stop-color="#F1C05D"/>
<stop offset="0.238281" stop-color="#F3C25F"/>
<stop offset="0.242188" stop-color="#F4C561"/>
<stop offset="0.246094" stop-color="#F5C763"/>
<stop offset="0.25" stop-color="#F7CA65"/>
<stop offset="0.253906" stop-color="#F8CC67"/>
<stop offset="0.257812" stop-color="#FACF69"/>
<stop offset="0.261719" stop-color="#FBD16B"/>
<stop offset="0.265625" stop-color="#FCD46D"/>
<stop offset="0.269531" stop-color="#FED66F"/>
<stop offset="0.273438" stop-color="#FFD771"/>
<stop offset="0.277344" stop-color="#FDD56F"/>
<stop offset="0.28125" stop-color="#FCD36D"/>
<stop offset="0.285156" stop-color="#FBD06B"/>
<stop offset="0.289062" stop-color="#F9CE69"/>
<stop offset="0.292969" stop-color="#F8CC67"/>
<stop offset="0.296875" stop-color="#F7C965"/>
<stop offset="0.300781" stop-color="#F5C763"/>
<stop offset="0.304688" stop-color="#F4C461"/>
<stop offset="0.308594" stop-color="#F2C25F"/>
<stop offset="0.3125" stop-color="#F1C05D"/>
<stop offset="0.316406" stop-color="#F0BD5B"/>
<stop offset="0.320312" stop-color="#EEBB59"/>
<stop offset="0.324219" stop-color="#EDB957"/>
<stop offset="0.328125" stop-color="#ECB655"/>
<stop offset="0.332031" stop-color="#EAB454"/>
<stop offset="0.335938" stop-color="#E9B252"/>
<stop offset="0.339844" stop-color="#E8AF50"/>
<stop offset="0.34375" stop-color="#E6AD4E"/>
<stop offset="0.347656" stop-color="#E5AA4C"/>
<stop offset="0.351563" stop-color="#E4A84A"/>
<stop offset="0.355469" stop-color="#E2A648"/>
<stop offset="0.359375" stop-color="#E1A346"/>
<stop offset="0.363281" stop-color="#DFA144"/>
<stop offset="0.367188" stop-color="#DE9F42"/>
<stop offset="0.371094" stop-color="#DD9C40"/>
<stop offset="0.375" stop-color="#DB9A3E"/>
<stop offset="0.378906" stop-color="#DA983C"/>
<stop offset="0.382813" stop-color="#D9953A"/>
<stop offset="0.386719" stop-color="#D79339"/>
<stop offset="0.390625" stop-color="#D69037"/>
<stop offset="0.394531" stop-color="#D58E35"/>
<stop offset="0.398438" stop-color="#D38C33"/>
<stop offset="0.402344" stop-color="#D28931"/>
<stop offset="0.40625" stop-color="#D0872F"/>
<stop offset="0.410156" stop-color="#CF852D"/>
<stop offset="0.414062" stop-color="#CE822B"/>
<stop offset="0.417969" stop-color="#CC8029"/>
<stop offset="0.421875" stop-color="#CB7E27"/>
<stop offset="0.425781" stop-color="#CA7B25"/>
<stop offset="0.429687" stop-color="#C87923"/>
<stop offset="0.433594" stop-color="#C77621"/>
<stop offset="0.4375" stop-color="#C6741F"/>
<stop offset="0.441406" stop-color="#C4721E"/>
<stop offset="0.445313" stop-color="#C36F1C"/>
<stop offset="0.449219" stop-color="#C26D1A"/>
<stop offset="0.453125" stop-color="#C06B18"/>
<stop offset="0.457031" stop-color="#BF6816"/>
<stop offset="0.460938" stop-color="#BD6614"/>
<stop offset="0.464844" stop-color="#BE6815"/>
<stop offset="0.46875" stop-color="#BF6917"/>
<stop offset="0.472656" stop-color="#C16C19"/>
<stop offset="0.476563" stop-color="#C26E1B"/>
<stop offset="0.480469" stop-color="#C4711D"/>
<stop offset="0.484375" stop-color="#C5741F"/>
<stop offset="0.488281" stop-color="#C77621"/>
<stop offset="0.492188" stop-color="#C87923"/>
<stop offset="0.496094" stop-color="#CA7B25"/>
<stop offset="0.5" stop-color="#CB7E28"/>
<stop offset="0.503906" stop-color="#CD812A"/>
<stop offset="0.507812" stop-color="#CE832C"/>
<stop offset="0.511719" stop-color="#D0862E"/>
<stop offset="0.515625" stop-color="#D18830"/>
<stop offset="0.519531" stop-color="#D38B32"/>
<stop offset="0.523438" stop-color="#D48E34"/>
<stop offset="0.527344" stop-color="#D69036"/>
<stop offset="0.53125" stop-color="#D79339"/>
<stop offset="0.535156" stop-color="#D9953B"/>
<stop offset="0.539063" stop-color="#DA983D"/>
<stop offset="0.542969" stop-color="#DC9B3F"/>
<stop offset="0.546875" stop-color="#DD9D41"/>
<stop offset="0.550781" stop-color="#DFA043"/>
<stop offset="0.554688" stop-color="#E0A245"/>
<stop offset="0.558594" stop-color="#E2A547"/>
<stop offset="0.5625" stop-color="#E3A84A"/>
<stop offset="0.566406" stop-color="#E5AA4C"/>
<stop offset="0.570312" stop-color="#E6AD4E"/>
<stop offset="0.574219" stop-color="#E8AF50"/>
<stop offset="0.578125" stop-color="#E9B252"/>
<stop offset="0.582031" stop-color="#EBB554"/>
<stop offset="0.585938" stop-color="#ECB756"/>
<stop offset="0.589844" stop-color="#EEBA58"/>
<stop offset="0.59375" stop-color="#EFBC5A"/>
<stop offset="0.597656" stop-color="#F1BF5D"/>
<stop offset="0.601563" stop-color="#F2C25F"/>
<stop offset="0.605469" stop-color="#F4C461"/>
<stop offset="0.609375" stop-color="#F5C763"/>
<stop offset="0.613281" stop-color="#F7C965"/>
<stop offset="0.617188" stop-color="#F8CC67"/>
<stop offset="0.621094" stop-color="#FACF69"/>
<stop offset="0.625" stop-color="#FBD16B"/>
<stop offset="0.628906" stop-color="#FDD46E"/>
<stop offset="0.632812" stop-color="#FED670"/>
<stop offset="0.636719" stop-color="#FDD56F"/>
<stop offset="0.640625" stop-color="#FDD46D"/>
<stop offset="0.644531" stop-color="#FBD16B"/>
<stop offset="0.648438" stop-color="#F9CE68"/>
<stop offset="0.652344" stop-color="#F7CA66"/>
<stop offset="0.65625" stop-color="#F5C763"/>
<stop offset="0.660156" stop-color="#F4C461"/>
<stop offset="0.664062" stop-color="#F2C15E"/>
<stop offset="0.667969" stop-color="#F0BE5C"/>
<stop offset="0.671875" stop-color="#EEBB59"/>
<stop offset="0.675781" stop-color="#EDB857"/>
<stop offset="0.679688" stop-color="#EBB554"/>
<stop offset="0.683594" stop-color="#E9B252"/>
<stop offset="0.6875" stop-color="#E7AF4F"/>
<stop offset="0.691406" stop-color="#E6AC4D"/>
<stop offset="0.695313" stop-color="#E4A94A"/>
<stop offset="0.699219" stop-color="#E2A648"/>
<stop offset="0.703125" stop-color="#E0A345"/>
<stop offset="0.707031" stop-color="#DFA043"/>
<stop offset="0.710938" stop-color="#DD9D40"/>
<stop offset="0.714844" stop-color="#DB993E"/>
<stop offset="0.71875" stop-color="#D9963B"/>
<stop offset="0.722656" stop-color="#D89339"/>
<stop offset="0.726562" stop-color="#D69036"/>
<stop offset="0.730469" stop-color="#D48D34"/>
<stop offset="0.734375" stop-color="#D28A31"/>
<stop offset="0.738281" stop-color="#D1872F"/>
<stop offset="0.742188" stop-color="#CF842C"/>
<stop offset="0.746094" stop-color="#CD812A"/>
<stop offset="0.75" stop-color="#CB7E27"/>
<stop offset="0.753906" stop-color="#CA7B25"/>
<stop offset="0.757813" stop-color="#C87822"/>
<stop offset="0.761719" stop-color="#C67520"/>
<stop offset="0.765625" stop-color="#C4721E"/>
<stop offset="0.769531" stop-color="#C26F1B"/>
<stop offset="0.773438" stop-color="#C16C19"/>
<stop offset="0.777344" stop-color="#BF6916"/>
<stop offset="0.78125" stop-color="#BD6514"/>
<stop offset="0.785156" stop-color="#BE6815"/>
<stop offset="0.789062" stop-color="#C06A17"/>
<stop offset="0.792969" stop-color="#C16C19"/>
<stop offset="0.796875" stop-color="#C36F1B"/>
<stop offset="0.800781" stop-color="#C4721D"/>
<stop offset="0.804688" stop-color="#C67420"/>
<stop offset="0.808594" stop-color="#C77722"/>
<stop offset="0.8125" stop-color="#C97924"/>
<stop offset="0.816406" stop-color="#CA7C26"/>
<stop offset="0.820312" stop-color="#CC7F28"/>
<stop offset="0.824219" stop-color="#CD812A"/>
<stop offset="0.828125" stop-color="#CF842C"/>
<stop offset="0.832031" stop-color="#D0862E"/>
<stop offset="0.835938" stop-color="#D28931"/>
<stop offset="0.839844" stop-color="#D38C33"/>
<stop offset="0.84375" stop-color="#D58E35"/>
<stop offset="0.847656" stop-color="#D69137"/>
<stop offset="0.851563" stop-color="#D89339"/>
<stop offset="0.855469" stop-color="#D9963B"/>
<stop offset="0.859375" stop-color="#DB993D"/>
<stop offset="0.863281" stop-color="#DC9B3F"/>
<stop offset="0.867188" stop-color="#DE9E42"/>
<stop offset="0.871094" stop-color="#DFA044"/>
<stop offset="0.875" stop-color="#E1A346"/>
<stop offset="0.878906" stop-color="#E2A648"/>
<stop offset="0.882812" stop-color="#E4A84A"/>
<stop offset="0.886719" stop-color="#E5AB4C"/>
<stop offset="0.890625" stop-color="#E7AD4E"/>
<stop offset="0.894531" stop-color="#E8B050"/>
<stop offset="0.898437" stop-color="#EAB352"/>
<stop offset="0.902344" stop-color="#EBB555"/>
<stop offset="0.90625" stop-color="#EDB857"/>
<stop offset="0.910156" stop-color="#EEBA59"/>
<stop offset="0.914062" stop-color="#F0BD5B"/>
<stop offset="0.917969" stop-color="#F1C05D"/>
<stop offset="0.921875" stop-color="#F3C25F"/>
<stop offset="0.925781" stop-color="#F4C561"/>
<stop offset="0.929688" stop-color="#F6C763"/>
<stop offset="0.933594" stop-color="#F7CA66"/>
<stop offset="0.9375" stop-color="#F8CD68"/>
<stop offset="0.941406" stop-color="#FACF6A"/>
<stop offset="0.945312" stop-color="#FBD26C"/>
<stop offset="0.949219" stop-color="#FDD46E"/>
<stop offset="0.953125" stop-color="#FED770"/>
<stop offset="0.96875" stop-color="#FFD871"/>
<stop offset="1" stop-color="#FFD871"/>
</linearGradient>
</defs>
</svg>
